<?xml version="1.0" standalone="no"?>
<!DOCTYPE svg PUBLIC "-//W3C//DTD SVG 20010904//EN"
 "http://www.w3.org/TR/2001/REC-SVG-20010904/DTD/svg10.dtd">
<svg version="1.0" xmlns="http://www.w3.org/2000/svg"
 width="1600.000000pt" height="1008.000000pt" viewBox="0 0 1600.000000 1008.000000"
 preserveAspectRatio="xMidYMid meet">

<g transform="translate(0.000000,1008.000000) scale(0.100000,-0.100000)"
fill="#000000" stroke="none">
<path d="M2984 8634 c17 -44 117 -173 179 -230 95 -88 200 -139 331 -161 119
-19 231 -10 460 39 270 57 289 60 441 61 139 1 155 -1 216 -25 96 -38 147 -66
212 -115 84 -65 121 -132 169 -301 30 -111 30 -357 -1 -487 -27 -111 -45 -169
-83 -262 l-30 -73 -754 0 c-415 0 -754 -3 -754 -6 0 -27 116 -173 143 -179 12
-3 61 -6 108 -8 l87 -2 -65 -80 c-180 -223 -278 -483 -244 -647 23 -108 157
-285 254 -334 67 -34 177 -43 264 -21 135 35 256 105 378 219 l75 70 0 -116
c0 -94 -3 -114 -14 -110 -7 3 -20 -1 -27 -8 -8 -7 -93 -81 -189 -163 -96 -83
-255 -222 -354 -310 -98 -88 -209 -187 -247 -220 -37 -33 -68 -65 -68 -71 -1
-14 75 -118 114 -156 l27 -28 97 87 c144 129 494 439 580 514 l76 66 40 -30
c46 -33 155 -90 161 -84 3 2 4 324 4 716 l0 711 165 0 165 0 0 -660 0 -659 42
-29 c49 -33 142 -82 158 -82 7 0 10 230 10 715 l0 715 168 0 167 0 -3 -692
c-2 -381 2 -934 8 -1228 12 -576 9 -686 -32 -900 -17 -91 -22 -152 -22 -290 0
-157 3 -185 27 -275 27 -103 40 -140 84 -234 l26 -53 -44 -43 -44 -44 -90 60
c-100 67 -223 129 -306 154 -29 9 -64 21 -77 26 -12 5 -62 13 -110 19 -204 23
-409 -40 -537 -166 -67 -66 -100 -121 -121 -204 -49 -191 52 -349 299 -465
168 -79 330 -87 497 -23 127 49 295 154 421 261 90 77 86 79 96 -69 15 -228
-74 -446 -249 -610 -35 -32 -96 -76 -136 -97 -40 -21 -72 -42 -72 -47 0 -11
143 -98 175 -106 15 -4 43 3 77 19 238 110 418 407 418 692 0 97 -33 226 -81
314 l-40 74 32 33 32 33 68 -64 c162 -152 439 -300 670 -355 120 -30 318 -32
424 -7 242 60 423 190 516 372 l44 88 0 111 c-1 91 -5 120 -23 164 -66 158
-205 288 -429 400 -150 76 -190 86 -353 86 -177 1 -260 -19 -426 -99 -124 -60
-252 -152 -416 -299 l-106 -95 -18 72 c-28 116 -31 364 -6 512 50 299 48 170
37 1773 l-8 1202 812 0 811 0 0 -175 0 -174 -60 -118 c-167 -328 -454 -576
-790 -684 -87 -28 -258 -35 -282 -11 -26 26 -12 137 31 232 100 228 291 425
526 543 167 83 326 103 436 54 31 -14 60 -30 63 -36 4 -6 12 -11 17 -11 19 0
-36 83 -96 145 -77 79 -135 107 -236 113 -142 8 -290 -41 -461 -154 -255 -169
-466 -495 -443 -681 16 -131 190 -363 294 -393 149 -44 373 12 586 145 147 93
255 192 394 365 l20 25 1 -253 0 -252 53 -34 c60 -38 103 -61 135 -70 l22 -7
0 715 0 716 765 0 765 0 0 -85 c0 -64 -3 -85 -13 -85 -28 0 -262 -93 -517
-205 -146 -64 -267 -118 -269 -121 -5 -4 59 -96 103 -148 33 -39 34 -39 67
-25 51 21 194 19 247 -5 50 -22 58 -49 49 -160 -10 -138 -75 -252 -178 -313
-224 -133 -525 -47 -759 217 -35 39 -65 68 -68 66 -17 -18 181 -256 284 -342
121 -100 228 -155 352 -181 222 -46 417 51 493 244 18 47 23 79 23 168 1 97
-2 115 -23 155 -35 65 -77 127 -134 193 -27 32 -48 59 -46 61 18 12 369 156
380 156 5 0 9 -198 9 -454 l0 -455 33 -24 c29 -23 150 -87 162 -87 3 0 5 322
5 715 l0 715 565 0 565 0 0 -215 c0 -118 -3 -215 -6 -215 -4 0 -25 16 -47 36
-48 44 -102 68 -184 84 -128 25 -271 -28 -388 -145 -127 -126 -180 -239 -174
-373 4 -68 9 -85 39 -136 19 -32 67 -92 105 -132 66 -70 73 -74 113 -74 99 0
201 98 243 235 17 57 15 192 -4 237 -9 21 -32 59 -52 85 l-36 47 43 22 c110
56 224 67 311 31 l37 -16 0 -395 0 -395 43 -29 c61 -42 146 -84 157 -77 6 4
10 272 10 716 l0 709 155 0 c123 0 155 3 155 13 0 18 -52 91 -98 140 l-36 37
-1851 0 -1850 0 52 24 c306 143 421 482 267 789 -39 78 -60 108 -156 223 -204
247 -499 342 -977 314 -328 -19 -585 -94 -804 -234 -121 -78 -238 -209 -282
-317 l-19 -46 -23 55 c-62 154 -229 371 -372 484 -86 69 -158 107 -261 139
-63 19 -97 23 -210 23 -140 0 -161 -4 -490 -74 -120 -26 -168 -31 -280 -32
-121 0 -143 2 -215 26 -75 25 -185 87 -185 104 0 10 -76 92 -85 92 -4 0 -4 -7
-1 -16z m3721 -399 c170 -19 323 -68 427 -134 70 -45 77 -53 98 -107 32 -82
39 -256 15 -340 -57 -197 -229 -359 -420 -395 -33 -7 -64 -15 -68 -19 -4 -4
17 -39 48 -79 30 -39 55 -73 55 -76 0 -3 -309 -5 -688 -5 l-688 0 -71 73
c-129 131 -168 219 -168 377 0 103 1 107 42 190 132 271 494 466 950 510 240
23 306 24 468 5z m-1445 -950 c21 -27 65 -84 99 -125 l61 -75 -156 -3 c-86 -1
-158 -1 -160 1 -2 1 5 30 15 62 10 33 24 94 30 135 6 41 14 90 17 109 l6 34
26 -44 c14 -24 42 -66 62 -94z m-890 -602 l0 -207 -70 -92 c-134 -175 -304
-315 -443 -364 -91 -32 -186 -45 -253 -34 l-59 9 1 70 c2 93 25 179 79 292 87
185 254 384 394 471 42 25 78 50 79 54 2 5 64 8 138 8 l134 0 0 -207z m5535
-460 c-16 -144 -101 -280 -194 -308 -24 -7 -24 -6 -18 40 8 57 34 117 83 190
35 54 117 145 129 145 4 0 3 -30 0 -67z m-2957 -2533 c44 -10 63 -22 106 -65
63 -64 123 -178 134 -255 39 -277 -156 -524 -498 -631 -67 -21 -94 -24 -245
-24 -145 0 -182 4 -253 23 -136 37 -198 72 -285 159 -75 76 -156 178 -157 198
0 13 188 198 295 291 200 173 358 257 575 305 94 21 234 20 328 -1z m-1827
-430 c98 -19 154 -48 213 -109 31 -33 56 -64 56 -69 0 -13 -133 -139 -224
-210 -132 -106 -330 -214 -436 -240 -76 -18 -157 -25 -215 -17 -47 5 -57 11
-74 39 -84 135 -45 325 95 455 149 140 360 194 585 151z"/>
<path d="M12105 5954 c-116 -30 -196 -74 -266 -148 -182 -193 -188 -460 -17
-746 92 -152 200 -286 436 -535 184 -194 271 -335 346 -567 43 -132 61 -252
59 -403 -1 -179 -33 -317 -106 -468 -157 -321 -457 -519 -787 -519 -208 0
-400 67 -615 213 -262 178 -536 451 -697 695 -113 171 -133 205 -212 362 l-77
154 148 87 c378 221 533 369 550 525 7 62 0 83 -52 160 l-46 66 471 0 c407 0
470 2 470 15 0 8 -28 49 -63 92 l-62 78 -1005 3 -1005 2 -65 64 c-151 148
-360 279 -506 317 -109 28 -159 20 -280 -42 -53 -27 -103 -49 -111 -49 -8 0
-27 7 -43 15 -17 9 -30 11 -30 6 0 -12 87 -128 127 -168 18 -18 48 -35 67 -39
37 -6 37 -6 159 59 63 34 75 37 152 37 54 0 105 -7 147 -20 61 -19 188 -89
272 -151 l40 -29 -1412 0 c-777 0 -1412 -3 -1412 -7 0 -12 51 -85 95 -136 l40
-47 330 0 331 0 -67 -68 c-74 -76 -103 -123 -94 -153 8 -24 122 -169 133 -169
5 0 19 19 32 42 63 112 216 219 362 253 75 17 153 23 164 13 3 -4 -4 -26 -16
-50 -63 -122 -195 -237 -441 -384 l-154 -93 -30 30 c-53 50 -107 32 -141 -48
-30 -70 -9 -126 88 -238 35 -39 35 -39 61 -22 15 9 30 17 35 17 5 0 44 -46 87
-102 204 -266 473 -588 684 -818 96 -104 147 -157 394 -414 l76 -80 -19 -25
c-18 -25 -175 -181 -232 -230 l-27 -23 -68 45 c-232 153 -446 180 -600 76 -88
-61 -143 -154 -143 -243 1 -115 155 -338 277 -400 47 -24 136 -20 206 8 84 35
149 77 318 203 l150 113 54 -47 c30 -25 51 -51 48 -57 -4 -6 -26 -36 -50 -67
-94 -121 -199 -175 -282 -145 -20 7 -23 6 -18 -9 15 -38 114 -155 144 -170 96
-47 201 8 328 170 l65 83 82 -49 c122 -74 201 -91 282 -62 103 37 136 130 81
230 -42 76 -155 204 -204 230 -97 51 -213 20 -323 -86 -34 -34 -65 -61 -68
-61 -3 0 -25 18 -50 40 l-45 39 136 137 137 137 48 -45 c283 -261 558 -398
798 -398 148 0 243 36 327 123 117 122 146 328 69 491 -42 88 -174 257 -252
324 -82 69 -183 119 -281 137 -99 19 -139 19 -235 0 -168 -34 -349 -149 -520
-331 l-98 -105 -160 158 c-160 160 -384 396 -504 532 -36 41 -69 79 -75 85
-120 133 -328 390 -497 613 -6 8 12 23 59 49 100 56 287 170 370 226 40 26 74
48 76 48 2 0 19 -21 38 -47 49 -70 119 -142 164 -171 32 -21 53 -26 105 -27
36 0 76 3 90 7 25 7 25 7 25 -60 1 -87 37 -164 135 -285 80 -99 140 -147 220
-178 47 -18 69 -20 160 -16 111 5 173 23 251 72 95 61 155 135 183 227 13 45
13 46 -22 94 -40 56 -102 124 -114 124 -4 0 -8 -8 -8 -17 0 -37 -52 -126 -102
-176 -60 -60 -160 -112 -247 -129 -72 -13 -204 -5 -258 17 -36 14 -42 22 -48
55 -25 149 67 248 438 470 191 113 237 153 237 202 0 55 -72 225 -135 318 -19
29 -35 54 -35 56 0 2 110 4 245 4 l245 0 0 -659 0 -660 33 -24 c44 -34 147
-89 158 -85 6 2 9 292 9 716 l0 712 229 0 228 0 -66 -68 c-36 -37 -75 -84 -86
-104 l-19 -37 36 -53 c21 -29 55 -70 76 -91 l39 -38 28 46 c77 132 233 231
406 258 87 13 119 12 119 -4 0 -18 -33 -74 -76 -129 -75 -96 -170 -168 -393
-302 l-146 -87 -30 29 c-53 52 -104 33 -140 -52 -30 -73 -13 -116 88 -227 37
-41 37 -41 68 -26 34 18 53 10 65 -27 20 -63 241 -409 360 -563 153 -197 407
-467 565 -600 304 -254 572 -376 834 -377 132 -1 236 22 360 81 259 123 436
346 518 654 19 71 22 108 22 272 0 198 -7 255 -50 395 -91 294 -270 565 -601
910 -172 180 -203 219 -248 328 -98 234 -67 451 89 606 61 62 118 97 205 126
86 29 238 24 318 -10 29 -13 55 -21 57 -18 7 7 -47 86 -95 141 -54 60 -130 88
-260 92 -52 2 -104 2 -115 -1z m-3091 -1199 c18 -42 30 -89 30 -118 1 -60 -1
-62 -219 -194 -88 -53 -195 -120 -237 -150 l-77 -53 -16 27 c-8 16 -35 50 -59
77 l-44 50 -52 -57 c-110 -120 -263 -147 -325 -57 l-27 39 56 63 c70 78 115
162 123 227 6 55 -13 103 -68 173 -16 20 -29 39 -29 43 0 3 206 4 457 3 l457
-3 30 -70z m741 -1951 c97 -30 154 -67 178 -115 91 -186 -15 -452 -212 -531
-48 -19 -75 -23 -186 -23 -110 0 -142 4 -205 24 -146 47 -255 105 -403 214
l-69 50 109 109 c189 190 344 279 523 298 94 10 174 3 265 -26z m-1549 -565
c38 -11 73 -24 77 -29 11 -10 -125 -118 -234 -185 -148 -91 -200 -110 -289
-103 -44 3 -45 3 -48 42 -6 75 53 178 132 232 96 65 236 82 362 43z m909 -251
c-19 -67 -153 -119 -228 -90 -46 19 113 112 191 112 40 0 43 -2 37 -22z"/>
</g>
</svg>
